<?xml version="1.0" standalone="no"?>
<!DOCTYPE svg PUBLIC "-//W3C//DTD SVG 20010904//EN"
 "http://www.w3.org/TR/2001/REC-SVG-20010904/DTD/svg10.dtd">
<svg version="1.0" xmlns="http://www.w3.org/2000/svg"
 width="697.000000pt" height="697.000000pt" viewBox="0 0 697.000000 697.000000"
 preserveAspectRatio="xMidYMid meet">
<metadata>
Created by potrace 1.14, written by Peter Selinger 2001-2017
</metadata>
<g transform="translate(0.000000,697.000000) scale(0.100000,-0.100000)"
fill="#000000" stroke="none">
<path d="M1844 6539 c-10 -4 -66 -46 -123 -93 -57 -47 -106 -86 -110 -87 -43
-5 -66 -24 -132 -105 -8 -10 -35 -35 -59 -54 -24 -19 -60 -48 -80 -64 -80 -67
-68 -52 83 99 168 170 181 191 137 235 -42 42 -76 24 -305 -158 -113 -90 -284
-230 -295 -242 -3 -3 -41 -37 -85 -75 -44 -38 -85 -74 -91 -80 -6 -5 -42 -38
-81 -73 -158 -140 -113 -89 155 176 174 172 282 287 282 298 0 11 -7 30 -16
42 -28 40 -60 28 -184 -68 -63 -50 -120 -90 -128 -90 -26 0 -69 -32 -91 -69
-13 -20 -46 -55 -75 -78 -140 -114 -406 -367 -406 -387 0 -24 32 -56 55 -56
23 0 23 -2 10 -17 -63 -75 -155 -220 -155 -244 0 -32 41 -70 70 -64 24 5 90
53 255 187 l90 73 -57 -70 c-31 -38 -78 -88 -105 -110 -122 -103 -351 -324
-359 -347 -13 -41 22 -87 71 -93 21 -3 63 32 176 144 64 64 150 145 190 181
41 35 81 71 89 80 8 8 58 51 110 94 97 82 90 69 -47 -74 -39 -41 -81 -86 -93
-100 -19 -22 -146 -155 -437 -459 -101 -104 -110 -127 -72 -175 15 -19 30 -26
56 -26 l36 0 -41 -44 c-22 -23 -43 -53 -47 -65 -16 -52 43 -112 97 -97 13 3
68 44 123 92 55 47 199 167 320 266 203 166 207 161 14 -17 -209 -194 -442
-423 -449 -440 -8 -23 4 -73 22 -91 30 -30 63 -26 119 12 86 59 367 268 624
465 l80 61 -96 -94 c-79 -77 -163 -155 -359 -338 -78 -72 -267 -243 -312 -282
-56 -48 -38 -128 32 -143 39 -9 53 0 220 140 179 149 468 387 535 441 27 21
63 51 80 66 16 14 93 77 170 139 77 62 167 135 200 162 39 33 24 14 -46 -54
-199 -197 -466 -445 -719 -668 -52 -46 -113 -100 -135 -120 -22 -21 -105 -93
-185 -161 -80 -68 -148 -128 -152 -134 -16 -23 -8 -73 17 -100 44 -47 74 -37
216 76 41 33 511 381 554 410 19 13 9 -1 -26 -38 -115 -120 -144 -152 -263
-289 -182 -208 -226 -268 -226 -303 0 -61 74 -106 122 -73 29 19 110 86 148
121 15 14 74 63 131 109 l104 84 -105 -103 c-58 -56 -145 -138 -195 -183 -100
-89 -121 -126 -99 -169 17 -33 43 -48 81 -48 25 0 184 88 308 171 l30 20 -30
-27 c-16 -14 -54 -47 -84 -73 -110 -93 -141 -127 -141 -155 0 -62 67 -108 126
-86 52 20 157 73 254 128 52 30 100 57 105 60 6 3 -5 -9 -24 -26 -91 -84 -212
-205 -221 -222 -17 -32 -11 -67 17 -100 25 -30 30 -32 72 -27 62 7 236 75 376
147 284 146 579 365 975 725 30 28 57 52 60 55 3 3 50 46 105 95 55 50 111
101 125 113 50 47 578 500 695 597 66 55 122 102 125 105 3 3 54 46 115 95 60
50 119 98 130 107 11 9 83 67 160 128 77 61 149 119 160 128 195 161 1015 748
1015 726 0 -11 -255 -248 -495 -459 -44 -38 -100 -88 -125 -111 -38 -34 -340
-290 -405 -343 -11 -9 -61 -50 -110 -92 -50 -41 -133 -110 -185 -153 -52 -43
-104 -85 -115 -95 -11 -9 -90 -71 -175 -138 -85 -67 -211 -166 -280 -220 -208
-163 -577 -446 -910 -697 -386 -291 -337 -254 -510 -383 -516 -385 -588 -442
-591 -462 0 -3 -2 -15 -4 -25 -7 -34 21 -82 54 -96 28 -11 37 -11 67 3 36 17
211 121 274 162 19 13 87 57 150 98 127 83 352 237 360 246 3 3 28 21 55 40
66 45 53 33 -95 -90 -69 -57 -130 -108 -136 -114 -6 -5 -45 -39 -85 -75 -200
-177 -396 -367 -414 -400 -30 -60 18 -130 90 -130 45 0 329 154 495 268 57 39
43 23 -118 -139 -100 -101 -190 -195 -199 -208 -48 -71 0 -160 83 -153 31 2
293 163 534 328 47 31 83 55 80 52 -3 -4 -48 -51 -100 -105 -168 -174 -214
-225 -323 -355 -58 -70 -110 -140 -113 -154 -4 -16 -1 -45 7 -68 11 -32 22
-43 51 -54 34 -13 41 -13 80 8 24 12 67 38 96 56 28 19 78 51 110 71 31 20
103 67 160 105 109 71 133 83 92 45 -14 -13 -61 -63 -105 -112 -44 -49 -99
-109 -122 -134 -76 -82 -88 -136 -42 -194 25 -33 61 -41 103 -23 30 13 317
203 471 312 190 136 589 432 655 487 51 42 -88 -91 -170 -163 -46 -41 -94 -84
-106 -95 -11 -11 -53 -49 -94 -85 -40 -36 -78 -70 -84 -75 -18 -16 -224 -202
-316 -284 -194 -174 -203 -187 -173 -250 17 -33 58 -61 91 -61 18 0 129 70
227 142 39 29 -5 -15 -147 -147 -47 -43 -58 -59 -58 -85 0 -68 61 -128 118
-115 59 13 1029 726 1577 1160 115 91 129 99 80 44 -22 -25 -96 -88 -165 -140
-435 -329 -620 -488 -910 -778 -204 -205 -353 -374 -376 -428 -27 -62 19 -133
87 -133 39 0 200 98 354 214 195 148 408 357 715 706 44 50 168 187 190 210
36 37 313 239 619 450 68 47 225 161 349 254 l227 168 -100 -103 c-508 -527
-653 -671 -780 -769 -102 -80 -269 -213 -340 -271 -401 -331 -520 -437 -781
-694 -218 -215 -244 -247 -244 -295 0 -46 39 -98 80 -105 31 -6 59 11 185 111
55 44 106 83 113 88 7 4 -19 -34 -57 -84 -102 -133 -135 -193 -127 -234 11
-60 78 -97 139 -77 27 9 47 30 92 99 198 299 478 592 1002 1049 254 221 562
495 633 563 17 16 220 204 280 260 393 363 1066 1052 1146 1175 47 72 -21 179
-101 159 -14 -3 -70 -55 -132 -122 -104 -113 -254 -263 -378 -380 -63 -60 -61
-57 50 63 36 39 455 472 633 654 94 97 173 182 173 188 1 7 2 20 2 28 0 38 -5
48 -32 76 -38 38 -81 38 -130 2 -59 -44 -330 -262 -406 -326 -38 -32 -79 -66
-90 -76 -46 -38 -281 -237 -291 -246 -6 -6 -35 -31 -65 -56 -29 -24 -87 -73
-128 -109 -42 -36 -108 -92 -146 -124 -65 -54 -66 -55 -20 -10 28 27 100 94
160 149 61 55 112 102 115 105 5 6 215 198 289 265 68 62 90 83 206 190 59 55
123 114 140 130 133 123 254 235 281 260 35 35 51 84 35 114 -28 51 -106 73
-148 40 -33 -26 -512 -421 -573 -473 -14 -11 -63 -52 -110 -91 -47 -38 -87
-72 -90 -75 -3 -3 -40 -35 -84 -70 -43 -36 -108 -90 -145 -121 -36 -31 -223
-185 -416 -344 -192 -158 -361 -297 -375 -309 -14 -11 -45 -37 -70 -56 -25
-19 -47 -37 -50 -41 -3 -3 -52 -43 -110 -89 -58 -45 -107 -86 -110 -89 -8 -11
-564 -447 -580 -455 -26 -14 468 457 620 590 24 21 51 46 60 54 123 113 405
338 785 625 457 345 478 361 705 546 183 148 310 260 445 390 44 42 92 79 107
83 17 4 43 28 74 68 54 71 76 118 70 150 -3 13 -5 26 -5 29 -1 4 -13 18 -27
33 -37 37 -85 35 -152 -6 -126 -78 -417 -271 -486 -322 -42 -31 -78 -56 -81
-56 -4 0 47 49 175 165 111 102 195 180 200 185 3 3 30 28 60 55 282 255 285
259 256 328 -15 37 -41 56 -85 63 -24 4 -121 -64 -360 -253 -171 -136 -287
-228 -291 -233 -3 -3 -27 -24 -55 -45 -47 -38 -186 -152 -285 -234 -120 -101
-602 -509 -650 -551 -60 -53 -92 -80 -130 -112 -14 -12 -54 -46 -90 -77 -36
-31 -76 -66 -90 -78 -14 -12 -95 -81 -180 -153 -85 -73 -166 -142 -180 -154
-21 -18 -294 -248 -365 -308 -11 -9 -65 -53 -120 -98 -55 -45 -111 -92 -125
-104 -67 -57 -443 -355 -580 -460 -154 -117 -147 -104 34 59 49 44 96 87 105
96 35 34 273 241 391 339 69 58 127 107 130 110 4 4 74 62 145 122 71 58 221
181 350 285 122 99 277 224 365 296 26 21 224 181 243 197 10 8 28 23 40 34
12 10 42 35 67 55 25 20 47 38 50 41 3 3 73 61 155 130 83 68 152 126 155 129
3 4 52 46 110 95 58 49 110 94 115 100 6 6 44 40 85 76 41 36 81 72 90 80 9 8
68 62 131 120 160 147 617 607 640 644 27 44 24 80 -8 116 -26 29 -46 35 -98
31 -20 -1 -179 -127 -384 -303 -111 -96 -111 -92 4 27 163 168 293 312 375
414 62 77 67 121 22 173 -45 49 -80 42 -210 -39 -59 -37 -138 -88 -177 -114
-38 -26 -72 -46 -74 -43 -2 2 -2 5 0 7 95 75 200 174 205 194 15 58 -45 124
-104 117 -49 -6 -332 -172 -612 -361 -85 -57 -144 -94 -130 -83 14 12 39 34
55 49 81 72 294 249 410 340 145 115 166 145 141 204 -41 99 -87 85 -461 -148
-16 -10 28 40 98 111 77 79 131 142 136 159 9 35 -8 79 -38 95 -24 12 -83 13
-96 1 -6 -4 -35 -22 -65 -38 -163 -89 -355 -206 -546 -333 -125 -84 -430 -300
-485 -344 -14 -12 -41 -32 -59 -46 -163 -121 -584 -453 -654 -515 -6 -5 -90
-73 -186 -150 -96 -77 -177 -142 -180 -145 -3 -3 -70 -57 -150 -120 -80 -63
-158 -127 -175 -141 -16 -15 -68 -59 -115 -99 -97 -83 -215 -188 -307 -274
-35 -32 -72 -66 -82 -75 -30 -26 -182 -164 -200 -181 -94 -91 -406 -352 -556
-464 -127 -95 -356 -248 -363 -242 -5 6 96 97 348 316 123 106 525 439 680
563 24 19 253 201 270 214 319 251 602 481 790 643 76 66 401 344 444 380 17
14 48 41 70 61 51 44 225 190 291 244 27 22 65 54 84 71 34 29 265 216 341
276 95 74 276 212 371 281 59 42 112 84 119 92 7 8 12 34 12 57 -1 54 -39 93
-82 85 -63 -13 -388 -165 -570 -267 l-55 -31 43 40 c71 67 73 134 5 166 -44
21 -48 20 -201 -87 -259 -180 -594 -437 -958 -733 -84 -68 -428 -357 -434
-365 -3 -3 -61 -53 -130 -110 -68 -58 -140 -119 -160 -137 -39 -35 -303 -259
-525 -445 -247 -208 -688 -556 -825 -652 -40 -28 -6 10 120 135 224 222 311
303 475 444 39 33 72 62 75 65 3 3 32 27 65 54 33 27 65 54 70 60 6 6 42 38
80 71 219 187 532 496 700 691 165 190 225 271 225 299 0 36 -39 75 -82 81
-36 6 -38 5 -215 -172 -163 -164 -300 -295 -414 -399 -182 -165 -228 -205
-633 -548 -27 -23 -101 -84 -164 -135 -63 -51 -133 -108 -156 -128 -22 -20
-50 -40 -61 -45 -20 -10 -20 -10 0 6 11 8 51 46 90 83 38 37 108 101 155 142
47 41 96 86 110 100 14 14 60 57 103 95 44 39 89 79 101 90 12 11 60 54 106
95 46 41 108 98 139 125 30 28 62 57 71 65 222 203 389 359 562 531 167 165
178 178 178 213 0 50 -45 97 -85 90 -30 -5 -121 -72 -285 -208 -157 -131 -283
-244 -605 -547 -49 -46 -95 -88 -101 -94 -199 -181 -452 -397 -424 -363 3 4
140 143 305 310 282 285 500 511 682 708 43 46 110 119 150 161 40 42 75 89
79 105 13 53 -45 112 -98 99 -13 -3 -46 -27 -74 -53 -27 -26 -86 -78 -129
-117 -43 -38 -83 -75 -89 -80 -27 -26 -267 -234 -310 -270 -27 -22 -54 -44
-60 -50 -108 -98 169 179 519 520 85 82 93 94 91 124 -2 35 -43 81 -71 81 -18
0 -68 -19 -75 -29 -3 -4 -52 -50 -110 -101 -58 -51 -136 -121 -175 -155 -38
-34 -86 -75 -105 -91 -19 -16 -40 -33 -46 -39 -9 -9 -106 -93 -154 -135 -10
-8 -37 -31 -61 -51 -24 -21 -60 -51 -79 -68 -19 -18 -53 -46 -75 -63 -37 -28
34 43 151 150 27 26 96 90 153 142 56 52 175 165 263 251 158 153 161 157 155
190 -9 43 -40 69 -82 69 -27 0 -62 -24 -216 -151 -205 -168 -216 -178 -349
-284 -52 -41 -106 -84 -120 -95 -14 -11 -119 -93 -234 -183 -114 -89 -267
-209 -340 -266 -72 -57 -122 -94 -111 -81 52 60 352 345 575 546 101 92 361
313 507 431 88 72 91 75 88 111 -4 42 -42 82 -79 82 -17 0 -131 -73 -156 -100
-3 -3 -25 -21 -50 -40 -75 -57 -229 -180 -344 -274 -60 -49 -106 -84 -102 -77
10 16 242 239 373 358 52 47 62 79 34 115 -22 28 -57 39 -87 27z m-343 -532
c-10 -9 -11 -8 -5 6 3 10 9 15 12 12 3 -3 0 -11 -7 -18z m269 -425 c0 -4 -10
-13 -22 -21 -23 -14 -23 -14 -4 8 20 22 26 25 26 13z m3927 -401 c-30 -28 -65
-60 -78 -72 -13 -11 -42 -37 -64 -57 -215 -197 -530 -457 -955 -786 -165 -128
-204 -157 -165 -123 11 11 40 38 65 60 25 23 79 71 120 107 41 35 77 67 80 70
14 15 354 302 490 415 214 176 202 166 334 268 65 51 141 111 170 133 28 23
52 40 54 39 2 -2 -21 -26 -51 -54z m-1137 -114 c-25 -23 -85 -78 -135 -122
-49 -44 -97 -87 -105 -95 -8 -9 -89 -80 -180 -160 -91 -79 -167 -146 -170
-150 -10 -11 -346 -288 -415 -341 -38 -29 -72 -56 -75 -59 -6 -7 -399 -312
-455 -353 -37 -27 -38 -27 -10 -2 17 15 39 34 50 44 99 82 201 167 205 171 3
3 46 39 95 80 50 41 92 77 95 80 3 3 48 41 100 85 52 44 97 82 100 85 9 10
203 174 235 200 18 14 142 117 276 229 134 111 260 216 279 231 19 15 60 48
90 73 70 58 78 59 20 4z m424 -35 c-17 -15 -44 -38 -60 -52 -144 -124 -179
-154 -207 -179 -18 -16 -115 -99 -217 -186 -102 -87 -196 -167 -210 -179 -14
-12 -81 -68 -150 -126 -69 -58 -127 -107 -130 -110 -3 -3 -45 -39 -95 -80 -49
-41 -95 -79 -101 -85 -7 -5 -20 -17 -30 -25 -336 -273 -636 -508 -574 -448 64
61 156 144 230 208 127 109 145 125 150 131 19 21 995 829 1068 884 15 11 52
40 83 65 30 25 73 59 94 75 21 17 68 53 104 82 71 56 95 69 45 25z m4 -720
c-1 -5 -37 -37 -78 -73 -41 -35 -79 -68 -85 -74 -5 -6 -44 -40 -85 -76 -41
-35 -80 -68 -86 -74 -32 -29 -265 -232 -369 -320 -27 -24 -89 -76 -136 -116
-47 -41 -97 -83 -110 -94 -41 -34 -223 -186 -244 -204 -150 -125 -592 -475
-731 -578 -16 -12 -76 -57 -134 -100 -58 -43 -146 -107 -195 -142 -50 -35
-106 -75 -125 -89 -42 -30 136 147 275 274 110 100 362 317 440 379 28 22 52
42 55 45 35 36 445 355 885 690 556 423 708 540 713 553 5 10 14 9 10 -1z"/>
</g>
</svg>
